<svg width="124" height="100" viewBox="0 0 124 100" fill="none" xmlns="http://www.w3.org/2000/svg">
<g clip-path="url(#clip0_75_1083)">
<path d="M60.5175 65.218C62.1902 68.3878 65.0048 70.5117 68.4495 71.0506C70.1143 71.3105 71.512 71.2818 73.1064 70.8083C75.422 70.1226 77.4498 68.9634 79.2281 67.3546C81.1663 65.6007 82.1738 63.2456 82.8135 60.7454C83.1685 59.355 83.4947 57.7446 83.6562 56.2857L84.04 52.8384C84.3647 52.5083 85.2538 52.5386 85.7128 52.7921L85.7576 61.868L85.8152 63.8579L85.9063 70.6026C85.9127 71.0267 86.1206 71.5752 85.9015 71.9914C85.7128 72.3517 84.4878 72.3932 84.4063 71.9882L83.8274 69.1436C83.7234 68.6366 83.2804 68.0514 82.9158 67.8824C82.4105 67.6464 81.7772 67.8632 81.315 68.1503L77.4498 70.55C73.6245 72.9242 69.3866 73.4615 64.9728 73.1187C51.5732 72.0759 40.9066 61.7069 39.5488 48.4663C39.3441 46.4748 39.4865 44.5869 39.5328 42.6097C39.5456 42.0325 40.0958 39.3012 40.2701 38.6299C43.3149 26.9104 53.7113 18.4117 65.8764 18.0099C72.7721 17.7819 76.2472 19.3413 81.5917 23.3276C81.8555 23.5237 82.6807 23.5332 82.9206 23.3339C84.2863 22.1923 83.9233 20.1115 84.4622 19.1643C84.6477 18.8375 85.7272 18.8981 85.9415 19.2122C86.127 19.4864 85.9127 20.1147 85.9079 20.4415L85.7912 28.2912L85.724 37.6955C85.233 37.8215 84.571 37.8119 84.048 37.7035L83.6754 34.7457C83.394 32.5102 82.6455 29.1889 81.5517 27.2341C79.6167 23.7756 76.204 21.4285 72.3723 20.5069C70.4917 20.0541 68.6558 20.2582 66.7847 20.6935C63.2345 21.521 61.2963 24.2013 59.9162 27.3919C58.2882 31.1597 57.3271 35.1029 56.9273 39.2198C56.8537 39.9788 56.6714 40.7442 56.6538 41.4776C56.5899 44.3525 56.5035 47.1684 56.6954 50.0193C57.028 54.9606 58.1875 60.7965 60.5223 65.2196L60.5175 65.218Z" fill="black"/>
<path d="M38.7841 81.6602C35.0276 86.289 29.0146 88.1418 23.3471 86.8981C19.589 86.0737 16.3698 83.8733 14.1709 80.7306C17.5884 76.5849 22.8753 74.5041 28.1319 75.2328C32.4513 75.8307 36.2686 78.0423 38.7841 81.6602Z" fill="black"/>
<path d="M108.525 86.9569C102.654 88.0507 97.0604 86.2458 93.2607 81.6425C95.6228 78.3259 99.0498 76.1526 102.957 75.4144C108.368 74.2121 114.316 76.379 117.9 80.7129C115.683 83.9337 112.408 86.0672 108.523 86.9585L108.525 86.9569Z" fill="black"/>
<path d="M115.258 52.492C113.866 52.7456 112.467 52.6132 111.138 52.6212C110.927 52.6212 110.622 52.1859 110.625 51.9834C110.66 49.2632 110.409 48.9252 111.121 46.2576C113.099 38.84 119.94 34.2495 127.581 34.7741C128.173 35.364 128.029 37.4831 127.979 38.2803C127.539 45.3471 122.345 51.1989 115.258 52.492Z" fill="black"/>
<path d="M17.1642 52.5417C10.8106 51.5595 5.69958 46.7967 4.40423 40.5431C4.19954 39.5577 3.60943 35.023 4.54177 34.8604C6.04181 34.5989 7.44111 34.7743 8.93795 35.0629C15.4899 36.3257 20.3818 41.5205 21.3173 48.0994C21.5284 49.5855 21.4421 50.9998 21.3765 52.5847C19.8956 52.615 18.5603 52.7569 17.1642 52.5401V52.5417Z" fill="black"/>
<path d="M112.983 70.6643C110.03 70.7791 107.365 70.2354 104.852 68.8163C106.321 62.6297 111.383 57.977 117.666 57.0681C120.735 56.6249 124.661 57.1239 127.33 58.8316C125.713 65.5524 119.945 70.3933 112.983 70.6643Z" fill="black"/>
<path d="M27.2061 68.7912C24.7193 70.2772 21.9975 70.754 19.1653 70.6663C12.236 70.4542 6.34939 65.6165 4.72461 58.8272C8.04134 56.7862 12.6998 56.4386 16.3476 57.4767C21.6745 58.9882 25.8612 63.2439 27.2061 68.7912Z" fill="black"/>
<path d="M40.7666 99.9252C39.233 100.115 37.7633 99.914 36.2697 99.6749C34.4978 99.3895 32.8778 98.6082 31.3314 97.7264C31.2834 97.1667 31.4097 96.6453 31.6496 96.1766C35.4749 87.4069 45.9432 84.0074 54.3118 89.1783C52.791 94.2377 48.7594 98.0549 43.6532 99.5043C42.7624 99.7562 41.7917 99.7992 40.7666 99.9268V99.9252Z" fill="black"/>
<path d="M100.799 97.6877C97.4152 99.8562 93.1438 100.419 89.3441 99.6824C83.8876 98.6237 79.477 94.6359 77.7451 89.2321C79.6066 87.9406 81.7335 87.29 83.9548 86.893C85.7779 86.5677 87.5082 86.7112 89.3473 87.0891C94.2184 88.0905 98.2676 91.4182 100.31 95.9338C100.561 96.4871 100.679 96.9574 100.801 97.6877H100.799Z" fill="black"/>
<path d="M119.109 15.1141C121.254 19.1147 121.58 23.5139 119.544 27.9338C118.046 31.1865 114.696 34.342 110.709 35.3402C108.321 31.5963 108.072 26.9468 109.871 22.5795C112.135 17.0801 118.662 14.2802 119.109 15.1157V15.1141Z" fill="black"/>
<path d="M21.3662 35.3466C16.7701 34.1348 13.0632 30.4244 11.763 25.9391C10.6084 21.9544 11.1153 18.4545 13.1223 14.8159C17.2115 15.9097 20.469 18.85 22.0346 22.2845C24.0128 26.6247 23.8209 31.4114 21.3662 35.3466Z" fill="black"/>
<path d="M33.2562 7.97539C33.5952 12.8386 32.2711 16.3465 28.4714 19.4541C22.2649 14.7201 21.9675 5.47842 27.8173 0.317054C28.11 0.058747 28.5897 -0.146942 28.9288 0.135282C31.3484 2.13956 32.8148 4.87251 33.2562 7.97539Z" fill="black"/>
<path d="M103.639 19.4319C101.017 17.4882 99.3616 14.7537 98.8818 11.5854C98.6739 10.2158 98.8227 8.78871 98.8579 7.41426C99.4879 4.51388 100.841 2.02329 103.134 0.132225C103.43 -0.111732 103.876 0.0317722 104.148 0.262973C107.473 3.09319 108.957 7.30264 108.272 11.6524C107.817 14.7138 106.216 17.3575 103.639 19.4303V19.4319Z" fill="black"/>
<path d="M69.9335 95.1542C69.4729 97.0787 67.8545 98.2188 66.1098 98.257C64.2483 98.2985 62.6379 97.1202 62.139 95.2132C61.5057 92.7959 63.4311 90.275 66.0282 90.2734C68.6253 90.2718 70.522 92.6891 69.9335 95.1542Z" fill="black"/>
</g>
<defs>
<clipPath id="clip0_75_1083">
<rect width="124" height="100" fill="white"/>
</clipPath>
</defs>
</svg>
