<svg width="43" height="36" viewBox="0 0 43 36" fill="none" xmlns="http://www.w3.org/2000/svg">
<path d="M27.4204 0H15.5796V2.52669H27.4204V0Z" fill="white"/>
<path d="M30.5676 4.56112H12.4325V7.08781H30.5676V4.56112Z" fill="white"/>
<path d="M32.6801 4.56112V7.08781H33.0286C34.6258 7.09143 36.2592 7.17107 35.3082 9.09686L27.3841 21.9475V9.28147H25.0174V30.2986L36.7711 11.2362C38.8474 7.86971 41.1487 7.20003 42.2849 7.08781H43V4.56112H32.6801Z" fill="white"/>
<path d="M15.6159 21.9475L7.6918 9.09686C6.74076 7.17107 8.37422 7.09143 9.97139 7.08781H10.3199V4.56112H0V7.08781H0.715094C1.85126 7.20003 4.15263 7.86971 6.22894 11.2362L17.9826 30.2986V9.28147H15.6159V21.9475Z" fill="white"/>
<path d="M20.3167 34.0851L21.5001 36L22.6834 34.0851V9.28149H20.3167V34.0851Z" fill="white"/>
</svg>
