<svg width="24" height="24" viewBox="0 0 24 24" fill="none" xmlns="http://www.w3.org/2000/svg">
<path d="M13 20.9999C10.4833 20.9999 8.35433 20.1289 6.613 18.3869C4.87167 16.6449 4.00067 14.5159 4 11.9999C4 9.69992 4.75 7.70392 6.25 6.01192C7.75 4.31992 9.66667 3.33259 12 3.04992C12.2167 3.01659 12.4083 3.04592 12.575 3.13792C12.7417 3.22992 12.875 3.35059 12.975 3.49992C13.075 3.64925 13.1293 3.82425 13.138 4.02492C13.1467 4.22559 13.084 4.41725 12.95 4.59992C12.6667 5.03325 12.454 5.49159 12.312 5.97492C12.17 6.45825 12.0993 6.96659 12.1 7.49992C12.1 8.99992 12.625 10.2749 13.675 11.3249C14.725 12.3749 16 12.8999 17.5 12.8999C18.0167 12.8999 18.5293 12.8249 19.038 12.6749C19.5467 12.5249 20.0007 12.3166 20.4 12.0499C20.5833 11.9333 20.771 11.8793 20.963 11.8879C21.155 11.8966 21.3257 11.9423 21.475 12.0249C21.6417 12.1083 21.771 12.2333 21.863 12.3999C21.955 12.5666 21.984 12.7666 21.95 12.9999C21.7167 15.2999 20.7377 17.2083 19.013 18.7249C17.2883 20.2416 15.284 20.9999 13 20.9999ZM13 18.9999C14.4667 18.9999 15.7833 18.5956 16.95 17.7869C18.1167 16.9783 18.9667 15.9243 19.5 14.6249C19.1667 14.7083 18.8333 14.7749 18.5 14.8249C18.1667 14.8749 17.8333 14.8999 17.5 14.8999C15.45 14.8999 13.704 14.1789 12.262 12.7369C10.82 11.2949 10.0993 9.54925 10.1 7.49992C10.1 7.16659 10.125 6.83325 10.175 6.49992C10.225 6.16659 10.2917 5.83325 10.375 5.49992C9.075 6.03325 8.02067 6.88325 7.212 8.04992C6.40333 9.21659 5.99933 10.5333 6 11.9999C6 13.9333 6.68333 15.5833 8.05 16.9499C9.41667 18.3166 11.0667 18.9999 13 18.9999Z" fill="black"/>
</svg>
